<svg width="283" height="307" viewBox="0 0 283 307" fill="none" xmlns="http://www.w3.org/2000/svg">
<g filter="url(#filter0_d_2038_1041)">
<g filter="url(#filter1_d_2038_1041)">
<rect x="23.5332" y="44.6914" width="206.987" height="205.48" rx="16.7593" fill="white"/>
<rect x="23.6721" y="44.8303" width="206.709" height="205.202" rx="16.6204" stroke="#EDF2F7" stroke-width="0.277838"/>
</g>
<path d="M106.409 228.748V229.219H103.147V228.881L105.169 225.752H105.637L105.135 226.658L103.798 228.748H106.409ZM105.78 225.752V230.268H105.206V225.752H105.78ZM108.301 230.268H107.358L107.364 229.781H108.301C108.623 229.781 108.892 229.714 109.107 229.579C109.322 229.443 109.484 229.253 109.591 229.009C109.701 228.763 109.755 228.475 109.755 228.146V227.87C109.755 227.612 109.724 227.383 109.662 227.182C109.6 226.979 109.509 226.809 109.389 226.67C109.27 226.53 109.123 226.423 108.949 226.351C108.778 226.279 108.58 226.242 108.357 226.242H107.34V225.752H108.357C108.652 225.752 108.922 225.802 109.166 225.901C109.41 225.998 109.62 226.14 109.796 226.326C109.974 226.51 110.11 226.733 110.205 226.996C110.3 227.256 110.348 227.55 110.348 227.877V228.146C110.348 228.473 110.3 228.768 110.205 229.03C110.11 229.291 109.972 229.513 109.793 229.697C109.615 229.881 109.4 230.023 109.148 230.122C108.897 230.219 108.615 230.268 108.301 230.268ZM107.678 225.752V230.268H107.079V225.752H107.678Z" fill="#828282"/>
<path d="M138.054 228.8L137.595 228.682L137.821 226.434H140.138V226.964H138.308L138.172 228.192C138.255 228.144 138.359 228.1 138.485 228.059C138.613 228.017 138.76 227.997 138.925 227.997C139.134 227.997 139.321 228.033 139.487 228.105C139.652 228.175 139.793 228.277 139.909 228.409C140.026 228.541 140.116 228.701 140.178 228.887C140.24 229.073 140.271 229.281 140.271 229.51C140.271 229.727 140.241 229.927 140.181 230.109C140.124 230.29 140.036 230.45 139.918 230.586C139.8 230.721 139.651 230.825 139.471 230.899C139.293 230.974 139.084 231.011 138.842 231.011C138.66 231.011 138.487 230.986 138.324 230.937C138.163 230.885 138.018 230.807 137.89 230.704C137.764 230.599 137.66 230.468 137.58 230.313C137.501 230.156 137.451 229.972 137.431 229.761H137.977C138.001 229.931 138.051 230.073 138.125 230.189C138.2 230.305 138.297 230.393 138.417 230.453C138.539 230.511 138.68 230.54 138.842 230.54C138.978 230.54 139.099 230.516 139.205 230.468C139.31 230.421 139.399 230.353 139.471 230.264C139.544 230.175 139.598 230.067 139.636 229.941C139.675 229.815 139.695 229.673 139.695 229.516C139.695 229.374 139.675 229.241 139.636 229.119C139.596 228.997 139.537 228.891 139.459 228.8C139.382 228.709 139.288 228.639 139.177 228.589C139.065 228.537 138.937 228.511 138.792 228.511C138.6 228.511 138.454 228.537 138.355 228.589C138.258 228.641 138.157 228.711 138.054 228.8ZM142.272 230.949H141.329L141.335 230.462H142.272C142.594 230.462 142.863 230.395 143.078 230.261C143.293 230.124 143.454 229.934 143.562 229.69C143.671 229.444 143.726 229.156 143.726 228.828V228.552C143.726 228.293 143.695 228.064 143.633 227.863C143.571 227.661 143.48 227.49 143.36 227.352C143.24 227.211 143.093 227.105 142.92 227.032C142.748 226.96 142.551 226.924 142.327 226.924H141.31V226.434H142.327C142.623 226.434 142.893 226.483 143.137 226.583C143.381 226.68 143.591 226.821 143.766 227.007C143.944 227.191 144.081 227.415 144.176 227.677C144.271 227.938 144.318 228.231 144.318 228.558V228.828C144.318 229.154 144.271 229.449 144.176 229.712C144.081 229.972 143.943 230.194 143.763 230.378C143.586 230.562 143.371 230.704 143.118 230.803C142.868 230.9 142.586 230.949 142.272 230.949ZM141.648 226.434V230.949H141.05V226.434H141.648Z" fill="#828282"/>
<path d="M173.499 226.427H173.549V226.914H173.499C173.195 226.914 172.941 226.964 172.736 227.063C172.531 227.16 172.369 227.292 172.249 227.457C172.129 227.62 172.042 227.804 171.989 228.009C171.937 228.214 171.911 228.422 171.911 228.632V229.296C171.911 229.497 171.935 229.674 171.982 229.829C172.03 229.982 172.095 230.112 172.178 230.217C172.261 230.323 172.354 230.402 172.457 230.456C172.562 230.51 172.672 230.537 172.786 230.537C172.918 230.537 173.036 230.512 173.139 230.462C173.243 230.41 173.329 230.339 173.4 230.248C173.472 230.155 173.527 230.045 173.564 229.919C173.601 229.793 173.62 229.655 173.62 229.504C173.62 229.369 173.603 229.24 173.57 229.116C173.537 228.99 173.487 228.878 173.418 228.781C173.35 228.682 173.264 228.604 173.161 228.549C173.06 228.491 172.939 228.462 172.798 228.462C172.639 228.462 172.49 228.501 172.352 228.58C172.215 228.656 172.102 228.757 172.013 228.884C171.927 229.008 171.877 229.143 171.865 229.29L171.561 229.287C171.59 229.055 171.643 228.858 171.722 228.694C171.803 228.529 171.902 228.395 172.02 228.291C172.14 228.186 172.273 228.109 172.42 228.062C172.569 228.012 172.726 227.987 172.891 227.987C173.116 227.987 173.311 228.03 173.474 228.114C173.637 228.199 173.772 228.313 173.877 228.456C173.983 228.596 174.06 228.755 174.11 228.933C174.162 229.109 174.187 229.29 174.187 229.476C174.187 229.689 174.157 229.888 174.097 230.074C174.038 230.261 173.948 230.424 173.828 230.564C173.71 230.705 173.564 230.815 173.39 230.893C173.217 230.972 173.015 231.011 172.786 231.011C172.542 231.011 172.329 230.961 172.147 230.862C171.965 230.761 171.814 230.626 171.694 230.459C171.574 230.292 171.484 230.105 171.424 229.901C171.364 229.696 171.334 229.488 171.334 229.277V229.008C171.334 228.689 171.366 228.377 171.43 228.071C171.495 227.765 171.605 227.488 171.762 227.24C171.921 226.992 172.142 226.794 172.423 226.648C172.704 226.501 173.063 226.427 173.499 226.427ZM176.24 230.949H175.298L175.304 230.462H176.24C176.563 230.462 176.832 230.395 177.047 230.261C177.262 230.124 177.423 229.934 177.53 229.69C177.64 229.444 177.695 229.156 177.695 228.828V228.552C177.695 228.293 177.664 228.064 177.602 227.863C177.54 227.661 177.449 227.49 177.329 227.352C177.209 227.211 177.062 227.105 176.889 227.032C176.717 226.96 176.52 226.924 176.296 226.924H175.279V226.434H176.296C176.592 226.434 176.862 226.483 177.106 226.583C177.35 226.68 177.559 226.821 177.735 227.007C177.913 227.191 178.049 227.415 178.145 227.677C178.24 227.938 178.287 228.231 178.287 228.558V228.828C178.287 229.154 178.24 229.449 178.145 229.712C178.049 229.972 177.912 230.194 177.732 230.378C177.554 230.562 177.339 230.704 177.087 230.803C176.837 230.9 176.555 230.949 176.24 230.949ZM175.617 226.434V230.949H175.019V226.434H175.617Z" fill="#828282"/>
<path d="M205.622 226.434V226.756L203.752 230.949H203.147L205.014 226.905H202.57V226.434H205.622ZM207.647 230.949H206.704L206.71 230.462H207.647C207.969 230.462 208.238 230.395 208.453 230.261C208.668 230.124 208.829 229.934 208.937 229.69C209.046 229.444 209.101 229.156 209.101 228.828V228.552C209.101 228.293 209.07 228.064 209.008 227.863C208.946 227.661 208.855 227.49 208.735 227.352C208.615 227.211 208.468 227.105 208.295 227.032C208.123 226.96 207.926 226.924 207.702 226.924H206.685V226.434H207.702C207.998 226.434 208.268 226.483 208.512 226.583C208.756 226.68 208.966 226.821 209.141 227.007C209.319 227.191 209.456 227.415 209.551 227.677C209.646 227.938 209.693 228.231 209.693 228.558V228.828C209.693 229.154 209.646 229.449 209.551 229.712C209.456 229.972 209.318 230.194 209.138 230.378C208.961 230.562 208.746 230.704 208.493 230.803C208.243 230.9 207.961 230.949 207.647 230.949ZM207.023 226.434V230.949H206.425V226.434H207.023Z" fill="#828282"/>
<rect x="52.7754" y="219.504" width="27.7739" height="19.6592" rx="9.82962" fill="#E7E7E7" fill-opacity="0.92"/>
<path d="M65.3794 230.555V231.253H62.2906V230.658L63.7512 229.092C63.898 228.928 64.0138 228.785 64.0986 228.66C64.1833 228.534 64.2443 228.422 64.2815 228.322C64.3208 228.221 64.3405 228.125 64.3405 228.034C64.3405 227.898 64.3177 227.781 64.2722 227.684C64.2268 227.584 64.1596 227.508 64.0707 227.454C63.9838 227.4 63.8763 227.373 63.7481 227.373C63.6117 227.373 63.4938 227.407 63.3946 227.473C63.2974 227.539 63.223 227.631 63.1713 227.749C63.1217 227.867 63.0969 228 63.0969 228.149H62.2007C62.2007 227.88 62.2647 227.634 62.3929 227.411C62.5211 227.185 62.702 227.006 62.9356 226.874C63.1693 226.74 63.4463 226.673 63.7668 226.673C64.0831 226.673 64.3498 226.724 64.5669 226.828C64.786 226.929 64.9514 227.076 65.063 227.268C65.1768 227.458 65.2336 227.686 65.2336 227.95C65.2336 228.099 65.2098 228.245 65.1623 228.388C65.1147 228.528 65.0465 228.669 64.9576 228.809C64.8708 228.948 64.7653 229.088 64.6413 229.231C64.5172 229.374 64.3798 229.522 64.2288 229.675L63.4442 230.555H65.3794ZM67.4168 231.253H66.4338L66.44 230.527H67.4168C67.6608 230.527 67.8665 230.473 68.034 230.363C68.2014 230.251 68.3276 230.089 68.4123 229.876C68.4992 229.663 68.5426 229.406 68.5426 229.104V228.884C68.5426 228.652 68.5178 228.449 68.4681 228.273C68.4206 228.097 68.3493 227.949 68.2542 227.829C68.1591 227.709 68.0423 227.619 67.9037 227.56C67.7652 227.498 67.606 227.467 67.4261 227.467H66.4152V226.738H67.4261C67.728 226.738 68.004 226.789 68.2542 226.893C68.5064 226.994 68.7245 227.14 68.9085 227.33C69.0925 227.52 69.2341 227.748 69.3334 228.012C69.4347 228.275 69.4853 228.567 69.4853 228.89V229.104C69.4853 229.424 69.4347 229.717 69.3334 229.982C69.2341 230.246 69.0925 230.474 68.9085 230.664C68.7266 230.852 68.5085 230.998 68.2542 231.101C68.0019 231.202 67.7228 231.253 67.4168 231.253ZM66.961 226.738V231.253H66.0306V226.738H66.961Z" fill="#151515"/>
<path d="M23.6074 189.273C34.6774 189.273 35.7487 203.686 47.5329 203.686C59.3171 203.686 56.4604 162.723 67.5304 162.723C78.6004 162.723 72.5297 128.207 87.8849 128.207C103.24 128.207 96.0981 162.723 110.025 162.723C123.952 162.723 121.809 122.431 130.737 122.431C139.664 122.431 137.164 146.413 147.877 146.413C158.59 146.413 153.591 106.858 165.018 106.858C176.445 106.858 175.374 124.124 185.729 124.124C196.085 124.124 197.157 144.138 211.44 144.138C225.724 144.138 216.797 166.444 230.367 166.444" stroke="#6C5FBC" stroke-width="1.98779" stroke-linecap="round" stroke-linejoin="round"/>
<path d="M195.706 127.846C197.526 127.846 199.117 129.436 199.117 131.545C199.117 133.654 197.526 135.244 195.706 135.244C193.886 135.244 192.296 133.654 192.296 131.545C192.296 129.437 193.886 127.846 195.706 127.846Z" fill="#C5BFED" stroke="#6C5FBC" stroke-width="2.22012"/>
<rect x="195.09" y="109.648" width="25.6489" height="11.9084" rx="5.95422" fill="#6C5FBC"/>
<path d="M203.733 116.364C203.733 116.556 203.683 116.738 203.583 116.908C203.487 117.074 203.343 117.213 203.15 117.324C202.961 117.432 202.738 117.494 202.479 117.513V117.962H202.123V117.507C201.753 117.474 201.455 117.363 201.23 117.174C201.004 116.982 200.888 116.723 200.88 116.397H201.713C201.735 116.664 201.872 116.825 202.123 116.88V115.82C201.857 115.753 201.642 115.687 201.48 115.62C201.317 115.554 201.176 115.446 201.058 115.298C200.939 115.15 200.88 114.949 200.88 114.693C200.88 114.371 200.995 114.109 201.224 113.905C201.457 113.702 201.757 113.585 202.123 113.556V113.106H202.479V113.556C202.834 113.585 203.117 113.692 203.328 113.877C203.542 114.062 203.663 114.318 203.689 114.643H202.85C202.839 114.536 202.801 114.444 202.734 114.366C202.671 114.284 202.586 114.227 202.479 114.194V115.243C202.756 115.313 202.974 115.382 203.134 115.448C203.296 115.511 203.437 115.617 203.555 115.765C203.674 115.909 203.733 116.109 203.733 116.364ZM201.69 114.655C201.69 114.777 201.727 114.877 201.801 114.954C201.875 115.028 201.983 115.089 202.123 115.137V114.177C201.99 114.196 201.885 114.246 201.807 114.327C201.729 114.408 201.69 114.518 201.69 114.655ZM202.479 116.891C202.619 116.865 202.728 116.808 202.806 116.719C202.887 116.63 202.928 116.523 202.928 116.397C202.928 116.275 202.889 116.177 202.812 116.103C202.734 116.029 202.623 115.968 202.479 115.92V116.891ZM204.478 116.691V116.081L206.293 113.483H207.198V116.014H207.686V116.691H207.198V117.48H206.421V116.691H204.478ZM206.471 114.316L205.333 116.014H206.471V114.316ZM208.181 115.404C208.181 114.764 208.296 114.262 208.525 113.9C208.758 113.537 209.143 113.356 209.68 113.356C210.216 113.356 210.599 113.537 210.829 113.9C211.062 114.262 211.178 114.764 211.178 115.404C211.178 116.048 211.062 116.553 210.829 116.919C210.599 117.285 210.216 117.469 209.68 117.469C209.143 117.469 208.758 117.285 208.525 116.919C208.296 116.553 208.181 116.048 208.181 115.404ZM210.412 115.404C210.412 115.13 210.394 114.901 210.357 114.716C210.324 114.527 210.253 114.373 210.146 114.255C210.042 114.136 209.887 114.077 209.68 114.077C209.472 114.077 209.315 114.136 209.208 114.255C209.104 114.373 209.034 114.527 208.997 114.716C208.964 114.901 208.947 115.13 208.947 115.404C208.947 115.685 208.964 115.922 208.997 116.114C209.03 116.303 209.101 116.457 209.208 116.575C209.315 116.69 209.472 116.747 209.68 116.747C209.887 116.747 210.044 116.69 210.151 116.575C210.259 116.457 210.329 116.303 210.362 116.114C210.396 115.922 210.412 115.685 210.412 115.404ZM212.668 116.342C212.698 116.505 212.765 116.63 212.868 116.719C212.976 116.804 213.118 116.847 213.296 116.847C213.525 116.847 213.692 116.753 213.795 116.564C213.899 116.371 213.951 116.049 213.951 115.598C213.865 115.716 213.745 115.809 213.59 115.876C213.438 115.942 213.273 115.975 213.096 115.975C212.859 115.975 212.644 115.927 212.452 115.831C212.263 115.731 212.113 115.585 212.002 115.393C211.891 115.197 211.836 114.96 211.836 114.682C211.836 114.272 211.958 113.946 212.202 113.705C212.446 113.461 212.779 113.339 213.201 113.339C213.727 113.339 214.097 113.507 214.311 113.844C214.53 114.181 214.639 114.688 214.639 115.365C214.639 115.846 214.596 116.24 214.511 116.547C214.43 116.854 214.287 117.087 214.084 117.247C213.884 117.406 213.61 117.485 213.262 117.485C212.989 117.485 212.755 117.433 212.563 117.33C212.371 117.222 212.223 117.084 212.119 116.913C212.019 116.74 211.962 116.549 211.947 116.342H212.668ZM213.257 115.343C213.449 115.343 213.601 115.284 213.712 115.165C213.823 115.047 213.878 114.888 213.878 114.688C213.878 114.47 213.819 114.301 213.701 114.183C213.586 114.061 213.429 114 213.229 114C213.029 114 212.87 114.062 212.752 114.188C212.637 114.31 212.58 114.473 212.58 114.677C212.58 114.873 212.635 115.034 212.746 115.16C212.861 115.282 213.031 115.343 213.257 115.343Z" fill="white"/>
<line opacity="0.09" x1="23.861" y1="183.367" x2="229.839" y2="183.367" stroke="#6C5FBC" stroke-width="0.585257" stroke-linecap="round"/>
<line opacity="0.09" x1="24.5426" y1="158.71" x2="230.521" y2="158.71" stroke="#6C5FBC" stroke-width="0.585257" stroke-linecap="round"/>
<line opacity="0.09" x1="23.861" y1="133.327" x2="229.839" y2="133.327" stroke="#6C5FBC" stroke-width="0.585257" stroke-linecap="round"/>
<g clip-path="url(#clip0_2038_1041)">
<rect x="49.4062" y="57.8789" width="37.9194" height="18.2662" rx="9.13309" fill="#6C5FBC"/>
<path d="M65.6326 64.5879V69.012H65.0509V65.7131L63.5804 69.012H63.1713L61.6944 65.7067V69.012H61.1127V64.5879H61.7392L63.3758 68.2448L65.0125 64.5879H65.6326ZM66.4019 67.2475C66.4019 66.8894 66.4744 66.5762 66.6193 66.3077C66.7642 66.0349 66.9624 65.8239 67.2138 65.6747C67.4696 65.5256 67.753 65.451 68.0641 65.451C68.371 65.451 68.6374 65.517 68.8633 65.6492C69.0892 65.7813 69.2575 65.9475 69.3683 66.1478V65.5085H69.9565V69.012H69.3683V68.3599C69.2533 68.5644 69.0806 68.7349 68.8505 68.8713C68.6246 69.0034 68.3603 69.0695 68.0577 69.0695C67.7466 69.0695 67.4653 68.9928 67.2138 68.8393C66.9624 68.6859 66.7642 68.4707 66.6193 68.1936C66.4744 67.9166 66.4019 67.6012 66.4019 67.2475ZM69.3683 67.2538C69.3683 66.9896 69.3151 66.7594 69.2085 66.5634C69.102 66.3673 68.957 66.2182 68.7738 66.1159C68.5948 66.0093 68.3966 65.956 68.1792 65.956C67.9618 65.956 67.7637 66.0072 67.5846 66.1095C67.4056 66.2118 67.2629 66.3609 67.1563 66.557C67.0497 66.753 66.9965 66.9832 66.9965 67.2475C66.9965 67.516 67.0497 67.7504 67.1563 67.9507C67.2629 68.1468 67.4056 68.2981 67.5846 68.4046C67.7637 68.5069 67.9618 68.558 68.1792 68.558C68.3966 68.558 68.5948 68.5069 68.7738 68.4046C68.957 68.2981 69.102 68.1468 69.2085 67.9507C69.3151 67.7504 69.3683 67.5181 69.3683 67.2538ZM71.2401 64.9395C71.1293 64.9395 71.0356 64.9012 70.9588 64.8244C70.8821 64.7477 70.8438 64.654 70.8438 64.5431C70.8438 64.4323 70.8821 64.3386 70.9588 64.2618C71.0356 64.1851 71.1293 64.1468 71.2401 64.1468C71.3467 64.1468 71.4362 64.1851 71.5086 64.2618C71.5854 64.3386 71.6237 64.4323 71.6237 64.5431C71.6237 64.654 71.5854 64.7477 71.5086 64.8244C71.4362 64.9012 71.3467 64.9395 71.2401 64.9395ZM71.5214 65.5085V69.012H70.9397V65.5085H71.5214ZM74.2199 65.4446C74.6462 65.4446 74.9914 65.5746 75.2556 65.8346C75.5199 66.0903 75.652 66.4611 75.652 66.947V69.012H75.0766V67.0301C75.0766 66.6806 74.9893 66.4142 74.8145 66.2309C74.6398 66.0434 74.4011 65.9496 74.0985 65.9496C73.7916 65.9496 73.5465 66.0455 73.3633 66.2373C73.1843 66.4291 73.0947 66.7083 73.0947 67.0748V69.012H72.513V65.5085H73.0947V66.0072C73.2098 65.8282 73.3654 65.6896 73.5615 65.5916C73.7618 65.4936 73.9813 65.4446 74.2199 65.4446Z" fill="white"/>
<path d="M106.219 64.2376L104.835 69.012H104.136L103.027 65.1692L101.876 69.012L101.184 69.0188L99.8483 64.2376H100.513L101.554 68.2859L102.705 64.2376H103.403L104.499 68.2722L105.547 64.2376H106.219ZM110.394 66.9913C110.394 67.11 110.387 67.2356 110.374 67.368H107.373C107.396 67.7379 107.522 68.0279 107.75 68.2379C107.983 68.4434 108.264 68.5462 108.593 68.5462C108.862 68.5462 109.086 68.4845 109.264 68.3612C109.447 68.2334 109.575 68.0644 109.648 67.8543H110.319C110.218 68.2151 110.017 68.5096 109.716 68.738C109.415 68.9617 109.04 69.0736 108.593 69.0736C108.237 69.0736 107.917 68.9937 107.634 68.8339C107.355 68.674 107.136 68.448 106.976 68.1557C106.816 67.8589 106.736 67.5164 106.736 67.1283C106.736 66.7401 106.814 66.3999 106.969 66.1076C107.125 65.8154 107.341 65.5916 107.62 65.4364C107.903 65.2765 108.227 65.1966 108.593 65.1966C108.949 65.1966 109.264 65.2742 109.538 65.4295C109.812 65.5848 110.022 65.7994 110.168 66.0734C110.319 66.3428 110.394 66.6488 110.394 66.9913ZM109.75 66.8611C109.75 66.6237 109.698 66.4204 109.593 66.2515C109.488 66.078 109.344 65.9478 109.161 65.861C108.983 65.7697 108.784 65.7241 108.565 65.7241C108.25 65.7241 107.981 65.8245 107.757 66.0254C107.538 66.2264 107.412 66.5049 107.38 66.8611H109.75ZM114.71 66.9913C114.71 67.11 114.704 67.2356 114.69 67.368H111.69C111.712 67.7379 111.838 68.0279 112.066 68.2379C112.299 68.4434 112.58 68.5462 112.909 68.5462C113.178 68.5462 113.402 68.4845 113.58 68.3612C113.763 68.2334 113.891 68.0644 113.964 67.8543H114.635C114.535 68.2151 114.334 68.5096 114.032 68.738C113.731 68.9617 113.356 69.0736 112.909 69.0736C112.553 69.0736 112.233 68.9937 111.95 68.8339C111.671 68.674 111.452 68.448 111.292 68.1557C111.133 67.8589 111.053 67.5164 111.053 67.1283C111.053 66.7401 111.13 66.3999 111.285 66.1076C111.441 65.8154 111.658 65.5916 111.936 65.4364C112.219 65.2765 112.544 65.1966 112.909 65.1966C113.265 65.1966 113.58 65.2742 113.854 65.4295C114.128 65.5848 114.338 65.7994 114.484 66.0734C114.635 66.3428 114.71 66.6488 114.71 66.9913ZM114.067 66.8611C114.067 66.6237 114.014 66.4204 113.909 66.2515C113.804 66.078 113.66 65.9478 113.477 65.861C113.299 65.7697 113.101 65.7241 112.881 65.7241C112.566 65.7241 112.297 65.8245 112.073 66.0254C111.854 66.2264 111.728 66.5049 111.696 66.8611H114.067ZM117.698 69.012L116.225 67.3543V69.012H115.602V63.9431H116.225V66.9228L117.67 65.2583H118.54L116.773 67.1283L118.547 69.012H117.698ZM119.819 63.9431V69.012H119.195V63.9431H119.819ZM124.183 65.2583L121.922 70.7792H121.278L122.018 68.9709L120.504 65.2583H121.196L122.374 68.2996L123.539 65.2583H124.183Z" fill="#828282"/>
<path d="M147.617 64.2719V69.012H146.994V65.4775L145.418 69.012H144.98L143.397 65.4706V69.012H142.774V64.2719H143.445L145.199 68.19L146.952 64.2719H147.617ZM150.38 69.0736C150.028 69.0736 149.708 68.9937 149.421 68.8339C149.137 68.674 148.914 68.448 148.749 68.1557C148.589 67.8589 148.51 67.5164 148.51 67.1283C148.51 66.7447 148.592 66.4067 148.756 66.1145C148.925 65.8177 149.153 65.5916 149.441 65.4364C149.729 65.2765 150.051 65.1966 150.407 65.1966C150.763 65.1966 151.085 65.2765 151.373 65.4364C151.66 65.5916 151.887 65.8154 152.051 66.1076C152.22 66.3999 152.304 66.7401 152.304 67.1283C152.304 67.5164 152.218 67.8589 152.044 68.1557C151.875 68.448 151.645 68.674 151.352 68.8339C151.06 68.9937 150.736 69.0736 150.38 69.0736ZM150.38 68.5256C150.603 68.5256 150.813 68.4731 151.01 68.3681C151.206 68.263 151.364 68.1055 151.482 67.8954C151.606 67.6854 151.667 67.4297 151.667 67.1283C151.667 66.8269 151.608 66.5711 151.489 66.3611C151.371 66.151 151.215 65.9958 151.023 65.8953C150.832 65.7903 150.624 65.7378 150.4 65.7378C150.172 65.7378 149.962 65.7903 149.77 65.8953C149.583 65.9958 149.432 66.151 149.318 66.3611C149.204 66.5711 149.147 66.8269 149.147 67.1283C149.147 67.4342 149.201 67.6922 149.311 67.9023C149.425 68.1124 149.576 68.2699 149.763 68.3749C149.95 68.4754 150.156 68.5256 150.38 68.5256ZM155.021 65.1898C155.478 65.1898 155.848 65.329 156.131 65.6076C156.414 65.8816 156.556 66.2789 156.556 66.7995V69.012H155.939V66.8885C155.939 66.5141 155.846 66.2287 155.658 66.0323C155.471 65.8314 155.215 65.7309 154.891 65.7309C154.562 65.7309 154.3 65.8336 154.103 66.0391C153.912 66.2446 153.816 66.5437 153.816 66.9365V69.012H153.192V65.2583H153.816V65.7925C153.939 65.6008 154.106 65.4523 154.316 65.3473C154.53 65.2423 154.766 65.1898 155.021 65.1898ZM158.403 65.772V67.9845C158.403 68.1672 158.442 68.2973 158.519 68.3749C158.597 68.448 158.732 68.4845 158.923 68.4845H159.382V69.012H158.821C158.474 69.012 158.213 68.932 158.04 68.7722C157.866 68.6124 157.779 68.3498 157.779 67.9845V65.772H157.293V65.2583H157.779V64.313H158.403V65.2583H159.382V65.772H158.403ZM160.829 63.9431V69.012H160.206V63.9431H160.829ZM165.193 65.2583L162.933 70.7792H162.289L163.029 68.9709L161.515 65.2583H162.207L163.385 68.2996L164.549 65.2583H165.193Z" fill="#828282"/>
<path d="M186.708 64.2376L185.153 67.2105V69.012H184.53V67.2105L182.968 64.2376H183.66L184.838 66.6556L186.016 64.2376H186.708ZM190.859 66.9913C190.859 67.11 190.852 67.2356 190.838 67.368H187.838C187.861 67.7379 187.987 68.0279 188.215 68.2379C188.448 68.4434 188.729 68.5462 189.058 68.5462C189.327 68.5462 189.551 68.4845 189.729 68.3612C189.911 68.2334 190.039 68.0644 190.112 67.8543H190.784C190.683 68.2151 190.482 68.5096 190.181 68.738C189.88 68.9617 189.505 69.0736 189.058 69.0736C188.701 69.0736 188.382 68.9937 188.099 68.8339C187.82 68.674 187.601 68.448 187.441 68.1557C187.281 67.8589 187.201 67.5164 187.201 67.1283C187.201 66.7401 187.279 66.3999 187.434 66.1076C187.589 65.8154 187.806 65.5916 188.085 65.4364C188.368 65.2765 188.692 65.1966 189.058 65.1966C189.414 65.1966 189.729 65.2742 190.003 65.4295C190.277 65.5848 190.487 65.7994 190.633 66.0734C190.784 66.3428 190.859 66.6488 190.859 66.9913ZM190.215 66.8611C190.215 66.6237 190.163 66.4204 190.058 66.2515C189.953 66.078 189.809 65.9478 189.626 65.861C189.448 65.7697 189.249 65.7241 189.03 65.7241C188.715 65.7241 188.446 65.8245 188.222 66.0254C188.003 66.2264 187.877 66.5049 187.845 66.8611H190.215ZM191.517 67.1214C191.517 66.7378 191.595 66.4022 191.75 66.1145C191.906 65.8222 192.118 65.5962 192.387 65.4364C192.661 65.2765 192.965 65.1966 193.298 65.1966C193.627 65.1966 193.913 65.2674 194.155 65.409C194.397 65.5505 194.577 65.7286 194.696 65.9432V65.2583H195.326V69.012H194.696V68.3133C194.572 68.5325 194.388 68.7151 194.141 68.8613C193.899 69.0028 193.616 69.0736 193.292 69.0736C192.958 69.0736 192.657 68.9914 192.387 68.827C192.118 68.6626 191.906 68.432 191.75 68.1352C191.595 67.8384 191.517 67.5004 191.517 67.1214ZM194.696 67.1283C194.696 66.8451 194.639 66.5985 194.525 66.3885C194.41 66.1784 194.255 66.0186 194.059 65.909C193.867 65.7948 193.655 65.7378 193.422 65.7378C193.189 65.7378 192.976 65.7925 192.785 65.9021C192.593 66.0117 192.44 66.1716 192.326 66.3816C192.212 66.5917 192.154 66.8383 192.154 67.1214C192.154 67.4091 192.212 67.6603 192.326 67.8749C192.44 68.085 192.593 68.2471 192.785 68.3612C192.976 68.4708 193.189 68.5256 193.422 68.5256C193.655 68.5256 193.867 68.4708 194.059 68.3612C194.255 68.2471 194.41 68.085 194.525 67.8749C194.639 67.6603 194.696 67.4114 194.696 67.1283ZM197.071 65.8679C197.181 65.6533 197.336 65.4866 197.537 65.3679C197.742 65.2491 197.991 65.1898 198.284 65.1898V65.8336H198.119C197.42 65.8336 197.071 66.2127 197.071 66.9707V69.012H196.448V65.2583H197.071V65.8679ZM199.695 63.9431V69.012H199.072V63.9431H199.695ZM204.059 65.2583L201.798 70.7792H201.155L201.894 68.9709L200.381 65.2583H201.072L202.251 68.2996L203.415 65.2583H204.059Z" fill="#828282"/>
</g>
</g>
<defs>
<filter id="filter0_d_2038_1041" x="8.08855" y="-6.29425e-05" width="264.612" height="261.344" filterUnits="userSpaceOnUse" color-interpolation-filters="sRGB">
<feFlood flood-opacity="0" result="BackgroundImageFix"/>
<feColorMatrix in="SourceAlpha" type="matrix" values="0 0 0 0 0 0 0 0 0 0 0 0 0 0 0 0 0 0 127 0" result="hardAlpha"/>
<feOffset dx="13.4074" dy="-16.7593"/>
<feGaussianBlur stdDeviation="13.9661"/>
<feComposite in2="hardAlpha" operator="out"/>
<feColorMatrix type="matrix" values="0 0 0 0 0 0 0 0 0 0 0 0 0 0 0 0 0 0 0.15 0"/>
<feBlend mode="normal" in2="BackgroundImageFix" result="effect1_dropShadow_2038_1041"/>
<feBlend mode="normal" in="SourceGraphic" in2="effect1_dropShadow_2038_1041" result="shape"/>
</filter>
<filter id="filter1_d_2038_1041" x="-0.000936508" y="25.8641" width="282.296" height="280.789" filterUnits="userSpaceOnUse" color-interpolation-filters="sRGB">
<feFlood flood-opacity="0" result="BackgroundImageFix"/>
<feColorMatrix in="SourceAlpha" type="matrix" values="0 0 0 0 0 0 0 0 0 0 0 0 0 0 0 0 0 0 127 0" result="hardAlpha"/>
<feOffset dx="14.1205" dy="18.8273"/>
<feGaussianBlur stdDeviation="18.8273"/>
<feColorMatrix type="matrix" values="0 0 0 0 0.101961 0 0 0 0 0.12549 0 0 0 0 0.172549 0 0 0 0.15 0"/>
<feBlend mode="normal" in2="BackgroundImageFix" result="effect1_dropShadow_2038_1041"/>
<feBlend mode="normal" in="SourceGraphic" in2="effect1_dropShadow_2038_1041" result="shape"/>
</filter>
<clipPath id="clip0_2038_1041">
<rect x="49.4062" y="57.8789" width="159.389" height="18.2662" rx="9.13309" fill="white"/>
</clipPath>
</defs>
</svg>
