<svg width="26" height="26" viewBox="0 0 26 26" fill="none" xmlns="http://www.w3.org/2000/svg">
<path d="M17.7996 21.4646H7.32904C4.18787 21.4646 2.09375 19.894 2.09375 16.2293V8.89984C2.09375 5.23514 4.18787 3.66455 7.32904 3.66455H17.7996C20.9408 3.66455 23.0349 5.23514 23.0349 8.89984V16.2293C23.0349 19.894 20.9408 21.4646 17.7996 21.4646Z" stroke="#22C55E" stroke-width="1.57059" stroke-miterlimit="10" stroke-linecap="round" stroke-linejoin="round"/>
<path d="M12.565 15.7057C14.2998 15.7057 15.7062 14.2993 15.7062 12.5645C15.7062 10.8297 14.2998 9.42334 12.565 9.42334C10.8302 9.42334 9.42383 10.8297 9.42383 12.5645C9.42383 14.2993 10.8302 15.7057 12.565 15.7057Z" stroke="#22C55E" stroke-width="1.57059" stroke-miterlimit="10" stroke-linecap="round" stroke-linejoin="round"/>
<path d="M5.75879 9.94727V15.1826" stroke="#22C55E" stroke-width="1.57059" stroke-miterlimit="10" stroke-linecap="round" stroke-linejoin="round"/>
<path d="M19.3701 9.94727V15.1826" stroke="#22C55E" stroke-width="1.57059" stroke-miterlimit="10" stroke-linecap="round" stroke-linejoin="round"/>
</svg>
