<svg width="16" height="16" viewBox="0 0 16 16" fill="none" xmlns="http://www.w3.org/2000/svg">
<mask id="path-1-inside-1_2081_24" fill="white">
<path d="M15.1792 8.75039H8.83968V15.1792H6.3098V8.75039H0V6.45862H6.3098V0H8.83968V6.45862H15.1792V8.75039Z"/>
</mask>
<path d="M15.1792 8.75039H8.83968V15.1792H6.3098V8.75039H0V6.45862H6.3098V0H8.83968V6.45862H15.1792V8.75039Z" fill="black"/>
<path d="M15.1792 8.75039V12.8594H19.2883V8.75039H15.1792ZM8.83968 8.75039V4.64134H4.73063V8.75039H8.83968ZM8.83968 15.1792V19.2883H12.9487V15.1792H8.83968ZM6.3098 15.1792H2.20075V19.2883H6.3098V15.1792ZM6.3098 8.75039H10.4189V4.64134H6.3098V8.75039ZM0 8.75039H-4.10905V12.8594H0V8.75039ZM0 6.45862V2.34957H-4.10905V6.45862H0ZM6.3098 6.45862V10.5677H10.4189V6.45862H6.3098ZM6.3098 0V-4.10905H2.20075V0H6.3098ZM8.83968 0H12.9487V-4.10905H8.83968V0ZM8.83968 6.45862H4.73063V10.5677H8.83968V6.45862ZM15.1792 6.45862H19.2883V2.34957H15.1792V6.45862ZM15.1792 8.75039V4.64134H8.83968V8.75039V12.8594H15.1792V8.75039ZM8.83968 8.75039H4.73063V15.1792H8.83968H12.9487V8.75039H8.83968ZM8.83968 15.1792V11.0702H6.3098V15.1792V19.2883H8.83968V15.1792ZM6.3098 15.1792H10.4189V8.75039H6.3098H2.20075V15.1792H6.3098ZM6.3098 8.75039V4.64134H0V8.75039V12.8594H6.3098V8.75039ZM0 8.75039H4.10905V6.45862H0H-4.10905V8.75039H0ZM0 6.45862V10.5677H6.3098V6.45862V2.34957H0V6.45862ZM6.3098 6.45862H10.4189V0H6.3098H2.20075V6.45862H6.3098ZM6.3098 0V4.10905H8.83968V0V-4.10905H6.3098V0ZM8.83968 0H4.73063V6.45862H8.83968H12.9487V0H8.83968ZM8.83968 6.45862V10.5677H15.1792V6.45862V2.34957H8.83968V6.45862ZM15.1792 6.45862H11.0702V8.75039H15.1792H19.2883V6.45862H15.1792Z" fill="white" mask="url(#path-1-inside-1_2081_24)"/>
</svg>
